# xmcd CD database file
#
# Track frame offsets:
#	150
#	60212
#	145837
#	183887
#	284582
#
# Disc length: 4327 seconds
#
# Revision: 0
# Processed by: cddbd v1.5.1PL2 Copyright (c) Steve Scherf et al.
# Submitted via: CDex 1.51
#
DISCID=4110e505
DTITLE=山下洋輔トリオ - LIVE 1973
DYEAR=2003
DGENRE=Jazz
TTITLE0=インプロヴィゼーション #1
TTITLE1=バラード・フォー・タケオ
TTITLE2=クレイ
TTITLE3=ズーボ
TTITLE4=ミトコンドリア
EXTD=YEAR: 2003
EXTT0=
EXTT1=
EXTT2=
EXTT3=
EXTT4=
PLAYORDER=
